<?xml version="1.0" encoding="UTF-8" standalone="no"?>
<!DOCTYPE svg PUBLIC "-//W3C//DTD SVG 1.1//EN" "http://www.w3.org/Graphics/SVG/1.1/DTD/svg11.dtd">
<svg version="1.1" xmlns="http://www.w3.org/2000/svg" xmlns:xlink="http://www.w3.org/1999/xlink" preserveAspectRatio="xMidYMid meet" viewBox="0 0 640 640" width="640" height="640"><defs><path d="M-45.72 462.7L652.64 456.01L644.18 202.77L314.45 283L-3.44 104.14L-45.72 462.7Z" id="l1Hbp9LI3D"></path><linearGradient id="gradientb3xzG8UQyH" gradientUnits="userSpaceOnUse" x1="441.81" y1="350.45" x2="179.11" y2="346.19"><stop style="stop-color: #006094;stop-opacity: 1" offset="0%"></stop><stop style="stop-color: #ffe14c;stop-opacity: 1" offset="100%"></stop></linearGradient><path d="M103.14 125.56C90.71 153.16 56.9 165.13 27.71 152.27C-1.49 139.41 -15.1 106.57 -2.66 78.97C9.78 51.37 43.58 39.4 72.78 52.26C101.98 65.12 115.58 97.97 103.14 125.56Z" id="d6ixvZQpk"></path><linearGradient id="gradientb94Wa6l4I" gradientUnits="userSpaceOnUse" x1="72.78" y1="52.26" x2="27.71" y2="152.27"><stop style="stop-color: #ffffff;stop-opacity: 1" offset="0%"></stop><stop style="stop-color: #ffdf3e;stop-opacity: 1" offset="100%"></stop></linearGradient><path d="M182.99 186.55C172.62 214.98 139.79 229.35 109.72 218.63C79.66 207.91 63.66 176.13 74.03 147.7C84.4 119.28 117.23 104.91 147.3 115.63C177.37 126.35 193.36 158.13 182.99 186.55Z" id="d2eYsm9BJe"></path><linearGradient id="gradienta3dz84oJih" gradientUnits="userSpaceOnUse" x1="145.38" y1="115.63" x2="87.31" y2="185.07"><stop style="stop-color: #ffffff;stop-opacity: 1" offset="0%"></stop><stop style="stop-color: #ffdf3e;stop-opacity: 1" offset="100%"></stop></linearGradient><path d="M312.63 465.96L653.79 465.96L657.99 136.71L312.63 284.24L312.63 465.96Z" id="etPGxhU1J"></path><linearGradient id="gradienteDhP1cNtc" gradientUnits="userSpaceOnUse" x1="476.07" y1="356.42" x2="140.79" y2="358.96"><stop style="stop-color: #006094;stop-opacity: 1" offset="0%"></stop><stop style="stop-color: #ffdf3e;stop-opacity: 1" offset="100%"></stop></linearGradient><path d="M560.86 185.77C560.86 205.86 544.35 222.18 524.03 222.18C503.7 222.18 487.2 205.86 487.2 185.77C487.2 165.68 503.7 149.36 524.03 149.36C544.35 149.36 560.86 165.68 560.86 185.77Z" id="c42tsVKzkK"></path><linearGradient id="gradientacgvHGxWc" gradientUnits="userSpaceOnUse" x1="495.2" y1="128.53" x2="527.87" y2="193.05"><stop style="stop-color: #ffffff;stop-opacity: 1" offset="0%"></stop><stop style="stop-color: #006094;stop-opacity: 1" offset="100%"></stop></linearGradient><path d="M456.25 142.27C457.73 149.08 453.56 155.75 446.95 157.16C440.33 158.57 433.75 154.19 432.27 147.38C430.78 140.58 434.95 133.91 441.57 132.5C448.19 131.09 454.76 135.47 456.25 142.27Z" id="blpz5F1nJ"></path><linearGradient id="gradientj104nZRWFd" gradientUnits="userSpaceOnUse" x1="430.65" y1="127.44" x2="446.05" y2="147.03"><stop style="stop-color: #ffffff;stop-opacity: 1" offset="0%"></stop><stop style="stop-color: #006094;stop-opacity: 1" offset="100%"></stop></linearGradient><path d="M536.19 126.34C537.06 130.35 534.5 134.3 530.48 135.16C526.45 136.02 522.48 133.46 521.6 129.45C520.73 125.44 523.28 121.49 527.31 120.63C531.33 119.77 535.31 122.33 536.19 126.34Z" id="bsuMET8k"></path><linearGradient id="gradientdM9JLCBUD" gradientUnits="userSpaceOnUse" x1="520.7" y1="117.69" x2="529.97" y2="129.19"><stop style="stop-color: #ffffff;stop-opacity: 1" offset="0%"></stop><stop style="stop-color: #006094;stop-opacity: 1" offset="100%"></stop></linearGradient><path d="M206.35 199.92C204.18 205.86 197.25 208.84 190.88 206.57C184.51 204.3 181.1 197.63 183.27 191.69C185.44 185.75 192.37 182.77 198.74 185.04C205.11 187.31 208.52 193.97 206.35 199.92Z" id="hiq5mjLy"></path><linearGradient id="gradienta1no2IyyM1" gradientUnits="userSpaceOnUse" x1="198.33" y1="185.03" x2="186.11" y2="199.52"><stop style="stop-color: #ffffff;stop-opacity: 1" offset="0%"></stop><stop style="stop-color: #ffdf3e;stop-opacity: 1" offset="100%"></stop></linearGradient><path d="M47.43 31.38C45.73 36.06 40.26 38.4 35.24 36.61C30.22 34.82 27.53 29.57 29.23 24.89C30.94 20.22 36.4 17.88 41.42 19.67C46.45 21.46 49.14 26.71 47.43 31.38Z" id="a3grqGrotV"></path><linearGradient id="gradientbQ6n9XuhB" gradientUnits="userSpaceOnUse" x1="41.1" y1="19.67" x2="31.48" y2="31.06"><stop style="stop-color: #ffffff;stop-opacity: 1" offset="0%"></stop><stop style="stop-color: #ffdf3e;stop-opacity: 1" offset="100%"></stop></linearGradient><path d="M159.01 54.3C157.3 58.98 151.84 61.32 146.82 59.53C141.8 57.74 139.1 52.49 140.81 47.81C142.52 43.14 147.98 40.8 153 42.59C158.02 44.38 160.71 49.63 159.01 54.3Z" id="bZoFYJil3"></path><linearGradient id="gradienti7o9Xhm3I" gradientUnits="userSpaceOnUse" x1="152.68" y1="42.59" x2="143.05" y2="53.98"><stop style="stop-color: #ffffff;stop-opacity: 1" offset="0%"></stop><stop style="stop-color: #ffdf3e;stop-opacity: 1" offset="100%"></stop></linearGradient></defs><g><g><g><use xlink:href="#l1Hbp9LI3D" opacity="1" fill="url(#gradientb3xzG8UQyH)"></use></g><g><use xlink:href="#d6ixvZQpk" opacity="1" fill="url(#gradientb94Wa6l4I)"></use></g><g><use xlink:href="#d2eYsm9BJe" opacity="1" fill="url(#gradienta3dz84oJih)"></use></g><g><use xlink:href="#etPGxhU1J" opacity="1" fill="url(#gradienteDhP1cNtc)"></use></g><g><use xlink:href="#c42tsVKzkK" opacity="1" fill="url(#gradientacgvHGxWc)"></use></g><g><use xlink:href="#blpz5F1nJ" opacity="1" fill="url(#gradientj104nZRWFd)"></use></g><g><use xlink:href="#bsuMET8k" opacity="1" fill="url(#gradientdM9JLCBUD)"></use></g><g><use xlink:href="#hiq5mjLy" opacity="1" fill="url(#gradienta1no2IyyM1)"></use></g><g><use xlink:href="#a3grqGrotV" opacity="1" fill="url(#gradientbQ6n9XuhB)"></use></g><g><use xlink:href="#bZoFYJil3" opacity="1" fill="url(#gradienti7o9Xhm3I)"></use></g></g></g></svg>