<?xml version="1.0" encoding="UTF-8" standalone="no"?>
<!DOCTYPE svg PUBLIC "-//W3C//DTD SVG 1.1//EN" "http://www.w3.org/Graphics/SVG/1.1/DTD/svg11.dtd">
<svg version="1.1" xmlns="http://www.w3.org/2000/svg" xmlns:xlink="http://www.w3.org/1999/xlink" preserveAspectRatio="xMidYMid meet" viewBox="0 0 640 640" width="640" height="640"><defs><path d="M577.66 -50.56L848.66 -50.56L848.66 740.44L577.66 740.44L577.66 -50.56Z" id="af7GippTJ"></path><linearGradient id="gradiente4hwzWn3UP" gradientUnits="userSpaceOnUse" x1="56.16" y1="945.44" x2="611.16" y2="163.37"><stop style="stop-color: #a6fbc3;stop-opacity: 1" offset="0%"></stop><stop style="stop-color: #f9fea1;stop-opacity: 1" offset="100%"></stop></linearGradient><path d="" id="fYGFyPXgX"></path><path d="" id="a2p2uHKNu"></path><path d="M558.45 173.53C527.37 165.67 508.75 133.18 516.88 101.02C525.02 68.86 556.86 49.14 587.94 57C619.01 64.87 637.64 97.36 629.5 129.51C621.36 161.67 589.53 181.4 558.45 173.53Z" id="bEu6x02bs"></path><linearGradient id="gradientf6jQQOYHK" gradientUnits="userSpaceOnUse" x1="625.3" y1="119.61" x2="207.76" y2="127.97"><stop style="stop-color: #feff9f;stop-opacity: 1" offset="0%"></stop><stop style="stop-color: #32f5f3;stop-opacity: 0.76" offset="100%"></stop></linearGradient><path d="M622.1 176.1C623.89 180.26 624.96 186.88 625.3 195.98C623.5 199.88 622.38 202.33 621.94 203.3C616.64 214.84 606.3 223.28 593.93 226.14C592.95 226.37 597.85 225.24 593.93 226.14C590.68 226.9 587.34 227.28 584 227.26C578.78 227.25 585.01 227.27 584 227.26C567.74 227.21 552.64 218.88 543.92 205.16C541.83 201.87 545.62 207.84 542.55 203.01C536.75 193.88 534.88 182.81 537.35 172.28C538.43 167.67 539.18 164.49 540.61 158.42C541.99 152.52 545.69 147.43 550.86 144.28C553.77 142.5 552.94 143.01 555.48 141.46C562.05 137.46 569.33 134.75 576.92 133.49C578.8 133.18 574.62 133.88 576.92 133.49C582.79 132.52 588.76 134.59 592.77 138.99C595.98 142.53 604.02 151.37 616.88 165.51C618.57 168.42 620.31 171.95 622.1 176.1Z" id="a1p0SOVYqw"></path><linearGradient id="gradienta1KebqyjPG" gradientUnits="userSpaceOnUse" x1="629.5" y1="177.12" x2="377.46" y2="305.26"><stop style="stop-color: #feff9f;stop-opacity: 1" offset="0%"></stop><stop style="stop-color: #32f5f3;stop-opacity: 0.76" offset="100%"></stop></linearGradient><path d="M605.04 340.46C576.5 355.07 541.07 342.95 525.95 313.42C510.84 283.89 521.74 248.06 550.28 233.46C578.82 218.85 614.26 230.97 629.37 260.5C644.48 290.03 633.58 325.86 605.04 340.46Z" id="bBSTFNnv0"></path><linearGradient id="gradientjxfQ3d9EE" gradientUnits="userSpaceOnUse" x1="511.01" y1="226.28" x2="605.04" y2="203.77"><stop style="stop-color: #a0fbc6;stop-opacity: 1" offset="0%"></stop><stop style="stop-color: #f6fea2;stop-opacity: 1" offset="100%"></stop></linearGradient><path d="M618.04 554.46C589.5 569.07 554.07 556.95 538.95 527.42C523.84 497.89 534.74 462.06 563.28 447.46C591.82 432.85 627.26 444.97 642.37 474.5C657.48 504.03 646.58 539.86 618.04 554.46Z" id="c4stAkGEE8"></path><linearGradient id="gradienta2oZGTwBIc" gradientUnits="userSpaceOnUse" x1="524.01" y1="440.28" x2="618.04" y2="417.77"><stop style="stop-color: #a0fbc6;stop-opacity: 1" offset="0%"></stop><stop style="stop-color: #e3fda9;stop-opacity: 1" offset="100%"></stop></linearGradient><path d="M525.91 217.95C520.33 220.8 513.53 218.69 510.74 213.23C507.95 207.77 510.21 201.02 515.78 198.17C521.36 195.31 528.16 197.43 530.95 202.89C533.74 208.35 531.49 215.1 525.91 217.95Z" id="d2zGOQj0mW"></path><path d="M596.94 53.57C596.15 64.2 586.88 72.2 576.24 71.41C565.59 70.62 557.59 61.35 558.38 50.72C559.17 40.09 568.44 32.09 579.09 32.88C589.73 33.67 597.73 42.94 596.94 53.57Z" id="foNJQqyVp"></path><path d="M535.18 196.9C535.18 200.75 531.97 203.88 528.01 203.88C524.06 203.88 520.85 200.75 520.85 196.9C520.85 193.04 524.06 189.91 528.01 189.91C531.97 189.91 535.18 193.04 535.18 196.9Z" id="bd7vm72a1"></path><path d="M601.66 64.48C601.66 68.33 598.45 71.46 594.5 71.46C590.54 71.46 587.33 68.33 587.33 64.48C587.33 60.62 590.54 57.5 594.5 57.5C598.45 57.5 601.66 60.62 601.66 64.48Z" id="b1xXj9J5R"></path></defs><g><g><g><g><use xlink:href="#af7GippTJ" opacity="1" fill="url(#gradiente4hwzWn3UP)"></use></g><g><g><use xlink:href="#fYGFyPXgX" opacity="1" fill-opacity="0" stroke="#000000" stroke-width="1" stroke-opacity="1"></use></g></g><g><g><use xlink:href="#a2p2uHKNu" opacity="1" fill-opacity="0" stroke="#000000" stroke-width="1" stroke-opacity="1"></use></g></g><g><use xlink:href="#bEu6x02bs" opacity="1" fill="url(#gradientf6jQQOYHK)"></use></g><g><use xlink:href="#a1p0SOVYqw" opacity="1" fill="url(#gradienta1KebqyjPG)"></use></g><g><use xlink:href="#bBSTFNnv0" opacity="1" fill="url(#gradientjxfQ3d9EE)"></use></g><g><use xlink:href="#c4stAkGEE8" opacity="1" fill="url(#gradienta2oZGTwBIc)"></use></g><g><use xlink:href="#d2zGOQj0mW" opacity="1" fill="#adfcc1" fill-opacity="1"></use></g><g><use xlink:href="#foNJQqyVp" opacity="1" fill="#adfcc1" fill-opacity="1"></use></g><g><use xlink:href="#bd7vm72a1" opacity="1" fill="#f9fea1" fill-opacity="1"></use></g><g><use xlink:href="#b1xXj9J5R" opacity="1" fill="#f9fea1" fill-opacity="1"></use></g></g></g></g></svg>

