<?xml version="1.0" encoding="UTF-8" standalone="no"?>
<!DOCTYPE svg PUBLIC "-//W3C//DTD SVG 1.1//EN" "http://www.w3.org/Graphics/SVG/1.1/DTD/svg11.dtd">
<svg version="1.1" xmlns="http://www.w3.org/2000/svg" xmlns:xlink="http://www.w3.org/1999/xlink" preserveAspectRatio="xMidYMid meet" viewBox="0 0 640 640" width="640" height="640"><defs><path d="M29.01 -68.63L691.53 -78.5L691.53 243.93L709.77 719.55L88.27 739.3C-146.76 593.42 -183.99 502.76 -23.42 467.3C137.15 431.85 223.51 498.71 235.66 667.88L424.09 686.12L674.82 652.69L645.14 339.78C645.14 339.78 645.14 339.78 645.14 339.78C618.79 285.53 542.11 283.87 513.43 336.92C508.91 345.28 498.13 350.15 481.07 351.53C414.53 356.91 377.82 327.46 370.95 263.19C366.5 221.55 376.51 179.64 399.32 144.51C421.96 109.63 410.21 76.32 364.07 44.58C292.26 -4.81 241.34 2.31 211.29 65.94C206.8 75.46 200.93 84.26 193.88 92.07C159.82 129.81 118.53 138.8 70.03 119.04C15.33 96.75 -2.91 54.71 15.33 -7.08L29.01 -68.63Z" id="a2iEcfSuE8"></path><linearGradient id="gradientguiEJnwny" gradientUnits="userSpaceOnUse" x1="291.25" y1="0" x2="304.17" y2="640"><stop style="stop-color: #fff668;stop-opacity: 1" offset="0%"></stop><stop style="stop-color: #00ccff;stop-opacity: 1" offset="100%"></stop></linearGradient></defs><g><g><g><use xlink:href="#a2iEcfSuE8" opacity="1" fill="url(#gradientguiEJnwny)"></use></g></g></g></svg>